<svg xmlns="http://www.w3.org/2000/svg" viewBox="19.74 184.1 213.25 289.99"><g id="freepik--Character--inject-6"><path d="M74.11,369.64S81.83,355.27,85,355.27c0,0,11,4.87,17.06,20.41h5.41s3-12.39,17.56-19.07c0,0,8.1,15,8.38,14.84a29.52,29.52,0,0,1-18.68,7.59c-11.68.48-28.63-.8-28.63-.8S75.82,373.78,74.11,369.64Z" style="fill:#FF725E"/><g style="opacity:0.30000000000000004"><path d="M110.23,377.73s12.29-6.91,22.15-6.14C132.38,371.59,120.83,381.09,110.23,377.73Z"/></g><g style="opacity:0.30000000000000004"><path d="M75.32,369.56s15.79,1.07,24,8.71C99.28,378.27,84.16,379.86,75.32,369.56Z"/></g><polygon points="44.01 375.7 44.65 473.65 156.24 473.81 156.24 375.9 44.01 375.7" style="fill:#FF725E"/><path d="M114,375.86a3,3,0,0,1,.46.42l1.26,1.29,4.57,4.8,14.91,16L150,414.42l4.44,4.91,1.19,1.36a3.09,3.09,0,0,1,.39.49,3,3,0,0,1-.46-.42l-1.26-1.29-4.57-4.8-14.91-16L120,382.62c-1.85-2-3.35-3.7-4.45-4.91l-1.18-1.35A2.66,2.66,0,0,1,114,375.86Z" style="fill:#fff"/><path d="M135.23,375.7a5.66,5.66,0,0,1,.91.82l2.34,2.38c2,2,4.65,4.83,7.58,8s5.51,6.06,7.38,8.17l2.2,2.51a6.87,6.87,0,0,1,.75,1,4.77,4.77,0,0,1-.9-.83l-2.32-2.4c-1.94-2.05-4.58-4.91-7.49-8.06s-5.58-6-7.47-8.08L136,376.66A5.13,5.13,0,0,1,135.23,375.7Z" style="fill:#fff"/><path d="M91.78,375.86A.87.87,0,0,1,92,376l.51.51,1.91,2c1.67,1.78,4,4.29,6.94,7.37l22.78,24.46,22.67,24.55c2.85,3.14,5.18,5.69,6.82,7.49l1.84,2.05.46.54c.11.13.16.19.15.2a1,1,0,0,1-.18-.16l-.51-.51-1.91-2-6.95-7.37-22.77-24.45-22.67-24.55-6.82-7.49-1.84-2-.47-.54C91.82,375.93,91.77,375.87,91.78,375.86Z" style="fill:#fff"/><path d="M69.43,375.86c.08-.11,1.42,1.16,3.66,3.55s5.47,5.9,9.41,10.26C90.37,398.4,101.13,410.55,113,424s22.5,25.72,30.19,34.6l9.09,10.54,2.45,2.88.63.76a2.53,2.53,0,0,1,.2.27s-.09-.07-.24-.23l-.67-.73-2.52-2.82-9.21-10.43-30.31-34.5L82.22,389.92c-3.9-4.4-7.06-7.94-9.27-10.37-1.11-1.22-2-2.16-2.57-2.78-.3-.31-.53-.55-.69-.7S69.43,375.88,69.43,375.86Z" style="fill:#fff"/><path d="M45.13,375.7c.08-.1,1.43,1.17,3.72,3.57s5.55,5.93,9.54,10.32c8,8.77,18.93,21,31,34.53S112.21,450,120,458.9l9.23,10.59,2.49,2.9.64.76a1.46,1.46,0,0,1,.2.27,1.44,1.44,0,0,1-.24-.23l-.68-.73-2.56-2.84-9.36-10.48C111.85,450.24,101,438,89,424.46L58.12,389.84c-4-4.42-7.18-8-9.42-10.43-1.12-1.22-2-2.16-2.61-2.79l-.7-.7C45.23,375.76,45.13,375.72,45.13,375.7Z" style="fill:#fff"/><path d="M44,404.92c.19-.23,3.8,3.49,9.38,9.66S66.6,429.35,75,438.92s15.88,18.26,21.29,24.58l6.39,7.51c.73.86,1.3,1.55,1.72,2.05l.44.55c.09.12.14.19.13.2a.72.72,0,0,1-.17-.17l-.48-.51-1.79-2L96,463.74c-5.51-6.29-13.06-14.93-21.41-24.48L53.11,414.82c-2.76-3.11-5-5.62-6.58-7.33-.78-.86-1.4-1.51-1.83-1.95A5.43,5.43,0,0,0,44,404.92Z" style="fill:#fff"/><path d="M44.38,431.92c.11-.1,8.51,9.22,18.75,20.81S81.6,473.79,81.5,473.89,73,464.66,62.74,453.07,44.27,432,44.38,431.92Z" style="fill:#fff"/><rect x="62.18" y="420.58" width="98.11" height="8.35" transform="translate(-313.71 535.26) rotate(-89.9)" style="fill:#fff"/><rect x="44.21" y="420.87" width="111.83" height="6.64" transform="translate(200.25 848.38) rotate(180)" style="fill:#fff"/><polygon points="54.56 375.68 54.5 473.66 60.41 473.67 60.59 375.69 54.56 375.68" style="fill:#fff"/><g style="opacity:0.30000000000000004"><polygon points="73.5 375.75 73.33 473.81 44.65 473.65 44.01 375.7 73.5 375.75"/></g><path d="M73.34,472.74c-.15,0-.26-21.64-.26-48.32s.11-48.33.26-48.33.26,21.63.26,48.33S73.48,472.74,73.34,472.74Z" style="fill:#455a64"/><path d="M166.53,254a28.7,28.7,0,0,1-6.12,7.85l-3.78,1.7-2.79,10.86-12.31-7.54,3.39-11.17,2.64-9.31,9.62-5.48Z" style="fill:#ffbf9d"/><path d="M133.9,226.58l3.22,15.32,3.7,0,17.5,24.32,9.59-10.58s-11.72-9.29-12.89-14.69,1-4.69,1-4.69l-3.39-9.78Z" style="fill:#263238"/><path d="M147,210.49s7.46-.28,20.53-5.29a105.68,105.68,0,0,0,21.26-11.39,3.92,3.92,0,0,1,5.42.85c1.94,2.65,4,8.61,4.48,22.53.77,24.55-5,27.75-6.84,26.92s-13.66-8.23-22-10.69S148,230.23,148,230.23Z" style="fill:#e0e0e0"/><path d="M147,210.49a1.37,1.37,0,0,0,0,.33c0,.24,0,.56,0,1,0,.9.09,2.19.16,3.85.15,3.42.37,8.36.64,14.59v.14H148c3.82.25,8.17.65,12.91,1.37,2.37.36,4.84.8,7.35,1.44a47.18,47.18,0,0,1,7.59,2.73c5.1,2.26,10.22,5.23,15.66,8.26l.27.13.33.09a2.09,2.09,0,0,0,.66,0l.62-.19.54-.32a6.42,6.42,0,0,0,1.62-1.83,16.36,16.36,0,0,0,1.82-4.48,49.88,49.88,0,0,0,1.45-9.74l.12-2.21c0-.73,0-1.46.05-2.19,0-1.46,0-2.91,0-4.35,0-2.87-.17-5.71-.4-8.48a69,69,0,0,0-1.13-8.14,23.57,23.57,0,0,0-2.66-7.42,4.76,4.76,0,0,0-1.32-1.47,4,4,0,0,0-1.84-.7,4.2,4.2,0,0,0-1.93.2,6.75,6.75,0,0,0-1.62.94q-3,2-5.93,3.78a104.81,104.81,0,0,1-11.2,5.79,101.42,101.42,0,0,1-17.33,5.75c-2.1.47-3.76.75-4.88.91-.56.08-1,.13-1.28.16l-.44.05a1.63,1.63,0,0,0,.44,0c.29,0,.73-.05,1.29-.12a49.19,49.19,0,0,0,4.91-.82,98.31,98.31,0,0,0,17.43-5.61,104.24,104.24,0,0,0,11.27-5.77c2-1.15,3.95-2.4,6-3.77a6.38,6.38,0,0,1,1.53-.88,3.71,3.71,0,0,1,1.72-.18,3.79,3.79,0,0,1,2.84,2A23.25,23.25,0,0,1,197,202.6a65.24,65.24,0,0,1,1.11,8.08c.23,2.76.38,5.58.4,8.45,0,1.43.05,2.88,0,4.33,0,.73,0,1.46,0,2.19l-.12,2.19a49.92,49.92,0,0,1-1.43,9.64,15.91,15.91,0,0,1-1.77,4.36,5.88,5.88,0,0,1-1.48,1.69l-.47.27c-.16.07-.33.1-.5.16a1.48,1.48,0,0,1-1-.19c-5.39-3-10.57-6-15.7-8.23a46.24,46.24,0,0,0-7.65-2.74c-2.54-.64-5-1.06-7.4-1.42-4.76-.7-9.12-1.08-13-1.3l.15.14c-.35-6.18-.62-11.09-.81-14.48-.1-1.68-.18-3-.23-3.88,0-.43-.05-.77-.07-1S147,210.5,147,210.49Z" style="fill:#263238"/><polygon points="124.01 225.38 128.7 225.83 127.58 219.25 123.28 220.31 124.01 225.38" style="fill:#FF725E"/><path d="M127.12,218.5l.88,5.12.47,2.8a7.32,7.32,0,0,0,8.06,6l19.59-.39-1.73-24.83-20.27,2.15A8.45,8.45,0,0,0,127.12,218.5Z" style="fill:#FF725E"/><g style="opacity:0.30000000000000004"><path d="M196.88,218c.32,13.07-1.78,23.72-4.69,23.79s-5.54-10.46-5.86-23.53,1.78-23.72,4.7-23.79S196.56,205,196.88,218Z"/></g><path d="M186.4,210.69s7.25-1.14,7.11,7.95-6.72,7.81-6.72,7.81A56.25,56.25,0,0,1,186.4,210.69Z" style="fill:#fff"/><path d="M148.49,215.25a62.68,62.68,0,0,1-7.68.82,64,64,0,0,1-7.71.35,62.68,62.68,0,0,1,7.68-.82A64,64,0,0,1,148.49,215.25Z" style="fill:#263238"/><path d="M148.67,218a62.68,62.68,0,0,1-7.68.82,64,64,0,0,1-7.71.35,65.13,65.13,0,0,1,7.68-.82A66.63,66.63,0,0,1,148.67,218Z" style="fill:#263238"/><path d="M148.85,220.72a66.54,66.54,0,0,1-7.68.81,64,64,0,0,1-7.71.35,64,64,0,0,1,7.68-.81A61.66,61.66,0,0,1,148.85,220.72Z" style="fill:#263238"/><path d="M149,223.45a64,64,0,0,1-7.67.81,61.84,61.84,0,0,1-7.72.35,66.54,66.54,0,0,1,7.68-.81A64,64,0,0,1,149,223.45Z" style="fill:#263238"/><path d="M151.2,246.43l3.67-5.24a2.84,2.84,0,0,1,4.21-.55,2.12,2.12,0,0,1,.61,2.22s4.35-.27,2.91,3.5c0,0,3.06.45,2.24,3.18,0,0,3.84.11,2.65,3.61s-6.11,4.23-7.21,3.5c0,0-1.19-.67-.13-2.55,0,0-4,3.26-5.69,2s.41-2.69.41-2.69-1.48.88-2.49.11,1.37-4.43,1.37-4.43a3.28,3.28,0,0,1-2.24-.35C150.62,248.06,151.2,246.43,151.2,246.43Z" style="fill:#ffbf9d"/><path d="M160.15,254.1c.11.08,1.07-1,2.46-2.11a9.17,9.17,0,0,0,2.35-2.28,13.87,13.87,0,0,0-2.66,1.9A6.61,6.61,0,0,0,160.15,254.1Z" style="fill:#ff9a6c"/><path d="M162.47,246.17a18.45,18.45,0,0,0-4.3,3.3,18.78,18.78,0,0,0-3.55,4.1c.11.09,1.71-1.71,3.88-3.74S162.55,246.28,162.47,246.17Z" style="fill:#ff9a6c"/><path d="M153.41,249.43a31.65,31.65,0,0,1,2.74-3.66,32.38,32.38,0,0,1,3.55-2.88,8.58,8.58,0,0,0-3.9,2.55A8.48,8.48,0,0,0,153.41,249.43Z" style="fill:#ff9a6c"/><path d="M141.42,244.51l2-1.32a2.38,2.38,0,0,1,2.22-.24,24.68,24.68,0,0,1,5.46,3.08c.72.9-.22,2.56-3.43,1.8s-.33-.05-.33-.05,6.29,4.45,3,10.18l-5.27-1.45s-4.39-8.45-4.53-9.85A2.47,2.47,0,0,1,141.42,244.51Z" style="fill:#ffbf9d"/><path d="M146.09,247.19c0,.08.68.36,1.63,1.08a8.21,8.21,0,0,1,3.12,8.21c-.22,1.17-.57,1.85-.49,1.89a4.23,4.23,0,0,0,.83-1.82,7.87,7.87,0,0,0-3.26-8.55A4.1,4.1,0,0,0,146.09,247.19Z" style="fill:#ff9a6c"/><path d="M189.4,195.52s-.08.14-.18.42l-.41,1.25c-.18.55-.39,1.22-.59,2s-.46,1.68-.66,2.68a68,68,0,0,0-1.19,7.11,73.75,73.75,0,0,0-.44,8.81,75.33,75.33,0,0,0,.68,8.79,67.45,67.45,0,0,0,1.4,7.07c.23,1,.51,1.88.74,2.67s.44,1.44.64,2l.44,1.24a2.19,2.19,0,0,0,.19.43,1.67,1.67,0,0,0-.09-.46l-.36-1.26c-.17-.55-.37-1.22-.56-2s-.46-1.67-.67-2.67c-.47-2-.91-4.38-1.28-7.05a73.11,73.11,0,0,1-.25-17.49c.3-2.68.67-5.09,1.09-7.08.17-1,.41-1.9.59-2.69s.35-1.47.5-2,.24-.93.32-1.28A2.48,2.48,0,0,0,189.4,195.52Z" style="fill:#263238"/><path d="M144.19,259.48,140,269.9l-6.8,14.76-14.37-15s-3.3-6.78-6.3-12.3c-2.15-3.94-7.16-4.5-7.16-4.5l-.15,36.86s18.51,17.08,23,19.17,14.17,8.32,17.63-3.25,9.3-36.48,9.3-36.48Z" style="fill:#ffbf9d"/><path d="M149.49,436.5l-3,22.83s22.13,10.22,22,14.5l-44.41-3.73,3.21-35.76Z" style="fill:#263238"/><path d="M133.22,456.21a1.84,1.84,0,0,0-1.46,2,1.75,1.75,0,0,0,1.93,1.47,1.94,1.94,0,0,0,1.54-2.09,1.83,1.83,0,0,0-2.18-1.31" style="fill:#e0e0e0"/><path d="M124.08,470.1l.26-2.85,43,4.48a3.42,3.42,0,0,1,1.33,2.36Z" style="fill:#455a64"/><path d="M146.89,459.52c0,.21-1.13.21-2.27.81s-1.81,1.47-2,1.36.25-1.34,1.65-2S147,459.32,146.89,459.52Z" style="fill:#455a64"/><path d="M151.4,461.9c0,.22-1,.5-1.78,1.36s-1.14,1.81-1.35,1.78-.24-1.28.81-2.32S151.42,461.7,151.4,461.9Z" style="fill:#455a64"/><path d="M153.54,467.78c-.2,0-.41-1.09.27-2.24s1.74-1.52,1.82-1.33-.62.77-1.16,1.72S153.76,467.78,153.54,467.78Z" style="fill:#455a64"/><path d="M147,454.2c-.11.19-1.08-.21-2.32-.24s-2.25.27-2.35.07.91-.89,2.37-.83S147.12,454,147,454.2Z" style="fill:#455a64"/><path d="M148.26,449.34a4.29,4.29,0,0,1-2.24-.22,10.2,10.2,0,0,1-2.28-.95,9.81,9.81,0,0,1-1.22-.8,2.62,2.62,0,0,1-.63-.59,1,1,0,0,1,0-1.18,1.21,1.21,0,0,1,1-.41,3,3,0,0,1,.83.2,8.36,8.36,0,0,1,1.35.61,8,8,0,0,1,1.94,1.55c.95,1.06,1.23,1.92,1.15,1.95s-.55-.67-1.53-1.56a8.8,8.8,0,0,0-1.89-1.32,8.2,8.2,0,0,0-1.25-.52c-.47-.17-.87-.21-1,0s-.06.11,0,.25a2.26,2.26,0,0,0,.47.44,12.78,12.78,0,0,0,1.12.79,12.15,12.15,0,0,0,2.09,1A15.17,15.17,0,0,1,148.26,449.34Z" style="fill:#455a64"/><path d="M194.18,386.21l12.32,19.45s23.54-6.31,26.17-2.94l-36.49,25.57-20.44-29.52Z" style="fill:#263238"/><path d="M194.3,411.77a1.84,1.84,0,0,0,.14,2.45,1.76,1.76,0,0,0,2.42-.12,1.94,1.94,0,0,0-.15-2.59,1.85,1.85,0,0,0-2.52.4" style="fill:#e0e0e0"/><path d="M196.17,428.29l-1.62-2.36,35.92-24.1a3.41,3.41,0,0,1,2.52,1Z" style="fill:#455a64"/><path d="M206.92,405.55c.11.19-.74.89-1.23,2.09s-.44,2.28-.66,2.32-.66-1.19,0-2.62S206.84,405.36,206.92,405.55Z" style="fill:#455a64"/><path d="M211.91,404.5c.17.15-.41,1-.5,2.18s.29,2.12.1,2.24-1-.83-.86-2.31S211.79,404.33,211.91,404.5Z" style="fill:#455a64"/><path d="M217.32,407.64c-.14.16-1-.58-1.23-1.89s.36-2.29.54-2.19,0,1,.21,2.07S217.48,407.5,217.32,407.64Z" style="fill:#455a64"/><path d="M203.59,401.4c0,.22-1,.54-1.94,1.31s-1.55,1.64-1.75,1.55.12-1.26,1.28-2.15S203.59,401.2,203.59,401.4Z" style="fill:#455a64"/><path d="M201.45,396.86c.06.07-.58.68-1.86,1.26a9.8,9.8,0,0,1-2.36.74,10.72,10.72,0,0,1-1.45.16,2.6,2.6,0,0,1-.86,0,1,1,0,0,1-.75-.91,1.22,1.22,0,0,1,.52-1,3,3,0,0,1,.76-.38,7.82,7.82,0,0,1,1.43-.39,8,8,0,0,1,2.48-.05,3.76,3.76,0,0,1,2.13.76c0,.12-.85-.16-2.18-.22a8.76,8.76,0,0,0-2.3.2,8.63,8.63,0,0,0-1.29.4c-.46.17-.8.39-.78.64,0,.09,0,.12.18.18a2.08,2.08,0,0,0,.63,0,11.7,11.7,0,0,0,1.37-.11,11.85,11.85,0,0,0,2.27-.54A16.36,16.36,0,0,1,201.45,396.86Z" style="fill:#263238"/><path d="M82.43,322.9c.88,0-3.29,11.57,27.28,15.65s42.1,8.54,47.93,15.82-7.49,90.8-7.49,90.8l-26.33-1.68s1.6-41.11,2.18-46.93,4.59-21.17,4.59-21.17h0l-64.69.66c-.38,0-.76,0-1.13,0-14.44-.46-25.68-19-24.48-33.4l1.42-7.81Z" style="fill:#263238"/><path d="M82.87,328.48s30-8.44,46-9.9,25.31,1.18,28,4.12c6.34,6.86,48.1,74.61,48.1,74.61l-22.28,15.3s-36.67-51.8-46.86-65.49L132.36,343l-49.93-6.88Z" style="fill:#263238"/><path d="M86.64,333.9a1.24,1.24,0,0,0,.22.06l.65.15,2.51.54,9.26,1.9,30.58,6.11,2.46.49-.15-.13a84,84,0,0,0,16.16,24.59,73.55,73.55,0,0,0,6.54,6l1.91,1.45.5.37.18.12s-.05-.06-.15-.15l-.48-.4L155,373.48a78.59,78.59,0,0,1-6.43-6.06,85.09,85.09,0,0,1-8.21-10.31,83.24,83.24,0,0,1-7.78-14.23l0-.11-.11,0-2.46-.49-30.6-6-9.28-1.77L87.53,334l-.66-.11Z" style="fill:#455a64"/><path d="M66,296.68a3.91,3.91,0,0,0,.75.72A15,15,0,0,0,69.12,299a15.54,15.54,0,0,0,4,1.53,14.64,14.64,0,0,0,5.24.22,17.28,17.28,0,0,0,8.48-3.87,20.11,20.11,0,0,0,2-1.95,4.11,4.11,0,0,0,.63-.81c-.07-.06-1,1.05-2.9,2.49a18.07,18.07,0,0,1-8.33,3.66,15.21,15.21,0,0,1-9-1.58C67.17,297.61,66.07,296.6,66,296.68Z" style="fill:#263238"/><g style="opacity:0.30000000000000004"><path d="M88.61,295.13A13.32,13.32,0,0,1,83,303.82a11.87,11.87,0,0,1-10.41,1.29,9.81,9.81,0,0,1-6.4-7.95,29.5,29.5,0,0,0,7.43,3.22,15.15,15.15,0,0,0,15.27-5.48l-.42.36"/></g><path d="M42.23,262.43s3.1-8.92,9-13.19,14.25-3.75,18.91-4.5l18.2.89,12.47,2.79S110.38,272,110,290.3c-.14,6.85-11.14,23.83-11.3,28-.15,3.85,10.53,11.41,5.71,11.75S39,344.6,39,344.6s-1.55-12.74,7.77-49.9C48.31,288.56,42.23,262.43,42.23,262.43Z" style="fill:#FF725E"/><path d="M112.27,291.9l18-13.78s-17-22-20.58-25.46c-4.2-4.09-12.19-4.7-12.19-4.7l8.74,39.82Z" style="fill:#FF725E"/><path d="M104.4,265.31a9,9,0,0,1,.55,1.44c.33.93.79,2.29,1.33,4a75.84,75.84,0,0,1,3.26,13.47,28.33,28.33,0,0,1-.1,7.67,32.33,32.33,0,0,1-1.61,6,39.39,39.39,0,0,1-1.66,3.87,7.45,7.45,0,0,1-.73,1.35,10.41,10.41,0,0,1,.55-1.44c.39-.9.92-2.24,1.49-3.9a34,34,0,0,0,1.48-6,28.68,28.68,0,0,0,.06-7.54,86.31,86.31,0,0,0-3.1-13.42l-1.16-4A7.64,7.64,0,0,1,104.4,265.31Z" style="fill:#263238"/><path d="M24.3,215c2.53-.62,5.23.3,7.88.37,5,.12,9.37-2.85,12.2-6.46s4.43-7.85,6.59-11.83,3.61-7.63,8.19-10.51c8.07-5.09,20.38-2,19.77,6.33L73.09,199a49.78,49.78,0,0,1-6.82,33.52c-1.22,2-2.73,4-5.09,4.89s-5.7-.11-6.26-2.36c-3.15,2.52-6.41,5.06-10.38,6.4s-8.84,1.23-12.17-1.24-4.14-7.62-.92-10.07c-4.3-.34-8.79-2.18-10.82-5.64S20.16,216,24.3,215Z" style="fill:#263238"/><path d="M89.47,185.2c-5.15-1.4-10,.17-14.65,2.69a27.11,27.11,0,0,0-13.43,27.78,20.85,20.85,0,0,0,9,13.71c6.48,4.12,15.3,3.76,21.85-.25S103,217.84,104,210.23a25.33,25.33,0,0,0-2.54-15.39,19.29,19.29,0,0,0-12-9.64" style="fill:#263238"/><path d="M72.84,201.55c1-1.92.88-4.19,1.39-6.28,1.13-4.61,3.27-8.69,7.8-10.09,4.22-1.3,11.12.25,15.85,2.3a18.68,18.68,0,0,1,8.17,6.54,14.76,14.76,0,0,1,1.42,13.45l-23.58-5.82a26.68,26.68,0,0,1-7.71,4.07,5,5,0,0,1-2.54.15,2.22,2.22,0,0,1-1.71-1.71A4.82,4.82,0,0,1,72.84,201.55Z" style="fill:#263238"/><path d="M68.28,245.2,72.43,200a3.9,3.9,0,0,1,4-3.46l21.31-2.4c6.69.21,10,8.93,9.48,15.61-.54,7.42-1.5,16.46-3.12,21.82-3.26,10.8-11.91,11.05-11.91,11.05s0,.42-.64,4.43c0,0-1.08,8.29-10.3,6.45C75.25,252.3,68.28,245.2,68.28,245.2Z" style="fill:#ffbf9d"/><path d="M101.86,218.84a1.43,1.43,0,0,1-1.56,1.24A1.36,1.36,0,0,1,99,218.61a1.44,1.44,0,0,1,1.56-1.25A1.38,1.38,0,0,1,101.86,218.84Z" style="fill:#263238"/><path d="M104.64,214.15c-.2.16-1.17-.78-2.69-1s-2.74.4-2.88.2.15-.41.69-.69a3.91,3.91,0,0,1,2.34-.39,3.8,3.8,0,0,1,2.1,1C104.62,213.73,104.74,214.08,104.64,214.15Z" style="fill:#263238"/><path d="M87.94,216.35a1.44,1.44,0,0,1-1.56,1.24,1.38,1.38,0,0,1-1.29-1.48,1.43,1.43,0,0,1,1.56-1.24A1.37,1.37,0,0,1,87.94,216.35Z" style="fill:#263238"/><path d="M90.07,211.63c-.2.16-1.17-.78-2.69-1s-2.74.4-2.88.2.15-.41.69-.69a3.93,3.93,0,0,1,2.34-.39,3.8,3.8,0,0,1,2.11,1C90.05,211.21,90.17,211.56,90.07,211.63Z" style="fill:#263238"/><path d="M93.61,224.44a10.27,10.27,0,0,1,2.54-.11c.39,0,.77,0,.87-.27a1.94,1.94,0,0,0-.1-1.18l-.75-3.12c-1-4.44-1.7-8.06-1.52-8.1s1.15,3.52,2.17,8c.24,1.1.48,2.14.7,3.13a2.32,2.32,0,0,1,0,1.56,1,1,0,0,1-.72.48,2.49,2.49,0,0,1-.67,0A10,10,0,0,1,93.61,224.44Z" style="fill:#263238"/><path d="M92.2,242.61a28.38,28.38,0,0,1-14.24-6s2.67,8.14,13.86,8.62Z" style="fill:#ff9a6c"/><path d="M92.47,228a2.8,2.8,0,0,0-2.32-1.35,2.52,2.52,0,0,0-1.86.69,1.59,1.59,0,0,0-.37,1.8,1.88,1.88,0,0,0,1.93.78A5.82,5.82,0,0,0,92,229a1.73,1.73,0,0,0,.5-.39.51.51,0,0,0,.07-.57" style="fill:#ff9a6c"/><path d="M89,224.88c.25,0,0,1.68,1.28,3s3,1.43,3,1.66-.44.27-1.18.19a4.22,4.22,0,0,1-2.54-1.29,3.68,3.68,0,0,1-1-2.54C88.63,225.24,88.87,224.86,89,224.88Z" style="fill:#263238"/><path d="M91.38,205.56c-.21.4-1.7,0-3.52,0s-3.33.27-3.52-.14c-.08-.19.23-.55.86-.87a6,6,0,0,1,2.7-.55,5.87,5.87,0,0,1,2.66.69C91.18,205,91.47,205.38,91.38,205.56Z" style="fill:#263238"/><path d="M105.11,207.43c-.32.31-1.32-.19-2.58-.38s-2.36-.09-2.56-.48c-.08-.19.14-.51.65-.78a3.65,3.65,0,0,1,2.17-.28,3.59,3.59,0,0,1,2,1C105.15,206.9,105.25,207.28,105.11,207.43Z" style="fill:#263238"/><path d="M69.33,198c2.78-6.15,13.08-13.89,19.71-12.64L99,193A10.37,10.37,0,0,1,91.05,200c-2,.35-4.25.24-5.56,1.73s-1,4-2.23,5.6c-1.75,2.2-5.78,1.61-7.19,4-.62,1.07-.52,2.44-1.16,3.49-.84,1.4-4.81,2.84-6.3,2.16s-1.19-3.31-1.53-4.75a7.37,7.37,0,0,1,.35-4.94C68.47,204.33,68,200.89,69.33,198Z" style="fill:#263238"/><path d="M73,218.91c.11-.83-.58-2.89-1.37-3.13-2.12-.64-6-1-6.84,4.5-1.08,7.52,6.69,7.05,6.73,6.84S72.65,221.74,73,218.91Z" style="fill:#ffbf9d"/><path d="M69.66,223.94s-.14.07-.38.14a1.27,1.27,0,0,1-1-.12c-.75-.4-1.24-1.76-1.08-3.12a4.33,4.33,0,0,1,.64-1.82,1.48,1.48,0,0,1,1.13-.86.67.67,0,0,1,.72.46c.07.23,0,.37,0,.39s.18-.1.16-.42a.83.83,0,0,0-.23-.51,1,1,0,0,0-.7-.3,1.87,1.87,0,0,0-1.53,1,4.55,4.55,0,0,0-.76,2c-.16,1.52.41,3.05,1.45,3.52a1.42,1.42,0,0,0,1.23,0C69.63,224.12,69.69,224,69.66,223.94Z" style="fill:#ff9a6c"/><path d="M97,190.48c.4,3.14,4.69,7.54,6.51,10.13,3.46,4.95,4.09,6.54,3.06,16.75,2.19-3.35,3.94-6.67,4.18-10.66a16.55,16.55,0,0,0-3.31-11.25,12.9,12.9,0,0,0-10.44-5" style="fill:#263238"/><path d="M65.49,197.48a7.4,7.4,0,0,0,1.25.45c.41.13.91.28,1.5.41s1.27.32,2,.44a37.91,37.91,0,0,0,5.35.58,41,41,0,0,0,6.58-.36,40.11,40.11,0,0,0,6.42-1.5,35.36,35.36,0,0,0,5-2.05c.7-.32,1.29-.68,1.82-1a15.22,15.22,0,0,0,1.32-.82,7.09,7.09,0,0,0,1.08-.77,6.49,6.49,0,0,0-1.17.62c-.36.22-.81.48-1.36.75s-1.13.62-1.83.92a40.36,40.36,0,0,1-5,1.93,43.52,43.52,0,0,1-6.36,1.45,42.63,42.63,0,0,1-6.51.39,40.15,40.15,0,0,1-5.3-.48c-.76-.09-1.43-.25-2-.36s-1.1-.24-1.51-.34A7.33,7.33,0,0,0,65.49,197.48Z" style="fill:#455a64"/><path d="M64.17,202.82a3.51,3.51,0,0,0,.86.3,23.83,23.83,0,0,0,2.4.55,30.63,30.63,0,0,0,16-1.55,23,23,0,0,0,2.25-1,3.66,3.66,0,0,0,.79-.46c0-.07-1.2.48-3.15,1.16a34.36,34.36,0,0,1-15.89,1.53C65.44,203.07,64.19,202.74,64.17,202.82Z" style="fill:#455a64"/><path d="M83.24,184.65c0,.09-1.26.27-3.22.89a25.3,25.3,0,0,0-12.81,9.21c-1.21,1.67-1.79,2.82-1.88,2.78a3.09,3.09,0,0,1,.34-.85,16.19,16.19,0,0,1,1.24-2.13,23.06,23.06,0,0,1,13-9.36,16.56,16.56,0,0,1,2.42-.49A2.68,2.68,0,0,1,83.24,184.65Z" style="fill:#FF725E"/><path d="M65,198.18a9,9,0,0,1-.68,1.25,35.06,35.06,0,0,0-1.75,3.41A24.87,24.87,0,0,0,60.3,215.1a18.92,18.92,0,0,0,5.08,11.24,23.35,23.35,0,0,0,4.09,3.24s-.12,0-.34-.13a9.44,9.44,0,0,1-.94-.48,15.74,15.74,0,0,1-3.07-2.38,18.57,18.57,0,0,1-5.34-11.45,24,24,0,0,1,2.49-12.45,27.71,27.71,0,0,1,1.92-3.37A6.92,6.92,0,0,1,65,198.18Z" style="fill:#455a64"/><path d="M67.1,227.21a2.37,2.37,0,1,0,2.37-2.37A2.37,2.37,0,0,0,67.1,227.21Z" style="fill:#455a64"/><path d="M53,292,44.76,309.3,66,324.55l-3.45,12.62L34.05,323.33c-4.82-2.33-6.12-5.85-7.06-9.53a15.75,15.75,0,0,1,.23-5.65L34,284.91Z" style="fill:#ffbf9d"/><path d="M98.22,278.49s10.62.62,11.48,2.47c0,0,.13,7.81-7.38,15.69l1.48,3.2v5.21c-3.49-6.77-7.39-17.14-7.39-17.14S96.25,280.63,98.22,278.49Z" style="fill:#fff"/><g style="opacity:0.30000000000000004"><path d="M98.6,279.18s3.71,9.63,1.44,16.56C100,295.74,94.94,287.23,98.6,279.18Z"/></g><path d="M81.91,291.45s4.92-9.42,7-9.44c0,0,7.17,3.09,11.26,13.17l3.53,0s1.87-8.1,11.3-12.55c0,0,5.39,9.7,5.57,9.6a19.09,19.09,0,0,1-12.12,5.08c-7.6.4-18.66-.31-18.66-.31S83.05,294.13,81.91,291.45Z" style="fill:#fff"/><g style="opacity:0.30000000000000004"><path d="M105.5,296.46s8-4.6,14.39-4.17C119.89,292.29,112.44,298.57,105.5,296.46Z"/></g><g style="opacity:0.30000000000000004"><path d="M82.69,291.39s10.3.58,15.68,5.5C98.37,296.89,88.53,298,82.69,291.39Z"/></g><polygon points="66.42 296.95 69.24 339.23 134.5 338.62 135.01 296.31 66.42 296.95" style="fill:#455a64"/><g style="opacity:0.30000000000000004"><polygon points="78.81 296.83 79.21 339.13 69.24 339.23 66.42 296.95 78.81 296.83"/></g><polygon points="71.33 296.9 73.39 339.19 75.65 339.17 75.26 296.87 71.33 296.9" style="fill:#fff"/><rect x="103.86" y="296.57" width="5.44" height="42.3" transform="translate(-2.97 1.01) rotate(-0.54)" style="fill:#fff"/><rect x="67.89" y="314.94" width="66.89" height="4.1" transform="translate(202.68 633.99) rotate(180)" style="fill:#fff"/><path d="M66.76,324.42s2.45-3.06,4.36-3.92,4.74-1.1,5.15-1.55,1.15-2,2.28-1.4,3.4,3.64-.29,6.18l-2.79,1.11s6.18,9.85,7.3,10.68,10.55,1.79,10.55,1.79,1.66.72,1.53,2.14-2.92,1.74-2.92,1.74a4.34,4.34,0,0,1-3.47,2.35,15,15,0,0,1-3.41-.21,4.68,4.68,0,0,1-5,.92C74.46,342.08,62.24,337,62.24,337l.43-13.44Z" style="fill:#ffbf9d"/><path d="M35,311.19s.36-.49,1.17-1a9.85,9.85,0,0,1,7.23-1.36,3.38,3.38,0,0,1,1.47.52,17.91,17.91,0,0,0-5.12,0A18,18,0,0,0,35,311.19Z" style="fill:#ff9a6c"/><path d="M31.74,284.11l25,9.22s8.23-21.76,8.85-24.7,2.93-7.68-.25-13.49-7.26-9.33-11.64-7.36C40.3,253.81,31.74,284.11,31.74,284.11Z" style="fill:#FF725E"/><path d="M63.28,251.18a5.11,5.11,0,0,1,1,1.55,17.48,17.48,0,0,1,1.77,8.66,4.91,4.91,0,0,1-.31,1.81,42,42,0,0,0-.53-6.15A42.19,42.19,0,0,0,63.28,251.18Z" style="fill:#263238"/><path d="M31.74,284.11a2.28,2.28,0,0,1,.49.13l1.38.45,5,1.75,16.55,5.92,2,.73-.29.12c2.36-5.75,4.42-10.89,5.87-14.6l1.69-4.38c.19-.48.34-.87.46-1.19s.17-.41.19-.4a2.79,2.79,0,0,1-.11.43c-.08.28-.2.69-.37,1.21-.35,1.05-.88,2.57-1.56,4.44-1.38,3.74-3.39,8.9-5.74,14.66l-.09.2-.21-.07-2-.73-16.51-6-5-1.88-1.35-.53A1.94,1.94,0,0,1,31.74,284.11Z" style="fill:#263238"/></g></svg>