<svg width="500" height="500" viewBox="0 0 500 500" fill="none" xmlns="http://www.w3.org/2000/svg">
<path d="M98.0999 423.65L82.3799 444.32L74.6599 464.26C74.5272 464.599 74.3264 464.908 74.0699 465.167C73.8134 465.426 73.5065 465.63 73.1684 465.765C72.8302 465.901 72.4677 465.966 72.1034 465.957C71.7391 465.947 71.3805 465.863 71.0499 465.71V465.71C70.6642 465.532 70.3272 465.264 70.0677 464.928C69.8083 464.592 69.634 464.198 69.5599 463.78C68.5599 458.38 65.0799 438.48 66.3199 437.03C67.7499 435.35 81.4599 414.12 81.4599 414.12L98.0999 423.65Z" fill="#FF725E"/>
<g opacity="0.6">
<path d="M71.0499 465.71L67.3499 435.61L66.6999 436.5C66.1418 437.269 65.8759 438.212 65.9499 439.16C66.1399 441.7 66.8399 448.69 69.4899 463.73C69.5645 464.166 69.7461 464.577 70.0183 464.926C70.2905 465.275 70.6449 465.551 71.0499 465.73V465.71Z" fill="white"/>
</g>
<g opacity="0.6">
<path d="M76.5799 432C76.7116 432.383 76.6942 432.801 76.5311 433.172C76.368 433.543 76.0712 433.838 75.6999 434C75.3204 434.148 74.8978 434.141 74.5235 433.98C74.1492 433.819 73.8533 433.517 73.6999 433.14C73.5757 432.74 73.6028 432.308 73.7761 431.926C73.9494 431.545 74.2567 431.24 74.6399 431.07C75.0426 430.971 75.4681 431.031 75.8277 431.238C76.1872 431.444 76.4531 431.782 76.5699 432.18" fill="white"/>
</g>
<path d="M72.9 453C73.8714 452.708 74.89 452.606 75.9 452.7C76.905 452.95 77.8523 453.391 78.69 454C78.69 454 78.6 453.6 78.15 453.18C77.557 452.645 76.8196 452.298 76.03 452.18C75.2381 452.034 74.4208 452.124 73.68 452.44C73.12 452.69 72.86 453 72.9 453Z" fill="#263238"/>
<path d="M72.3599 456.94C73.2076 457.038 74.049 457.185 74.8799 457.38C75.6514 457.743 76.3995 458.154 77.1199 458.61C77.2599 458.54 76.5699 457.36 75.0599 456.85C74.6361 456.646 74.169 456.547 73.6988 456.563C73.2285 456.578 72.7691 456.708 72.3599 456.94V456.94Z" fill="#263238"/>
<path d="M72.73 447.41C74.0487 447.451 75.3625 447.591 76.66 447.83C77.9148 448.248 79.1352 448.763 80.31 449.37C79.4316 448.276 78.1895 447.534 76.81 447.28C75.4789 446.829 74.0297 446.875 72.73 447.41Z" fill="#263238"/>
<path d="M77 440.72C77 440.89 78.47 441.25 80 442.29C81.53 443.33 82.48 444.56 82.62 444.46C82.1839 443.333 81.3664 442.396 80.31 441.81C79.3637 441.079 78.1955 440.694 77 440.72Z" fill="#263238"/>
<path d="M81.45 434.54C82.5786 434.905 83.6519 435.424 84.64 436.08C85.5238 436.875 86.2913 437.791 86.92 438.8C86.99 438.8 86.92 438.35 86.67 437.72C86.2831 436.903 85.7114 436.188 85 435.63C84.2874 435.07 83.4506 434.689 82.56 434.52C81.88 434.4 81.45 434.47 81.45 434.54Z" fill="#263238"/>
<path d="M85.46 434.88C85.46 434.88 85.74 434.65 86.06 434.11C86.5221 433.328 86.8215 432.461 86.94 431.56C87.0889 430.912 87.0186 430.233 86.74 429.63C86.6296 429.439 86.4623 429.287 86.2616 429.196C86.0608 429.104 85.8365 429.078 85.62 429.12C85.2115 429.227 84.8561 429.48 84.62 429.83C84.1581 430.572 83.9684 431.452 84.0833 432.318C84.1982 433.184 84.6106 433.984 85.25 434.58C85.8949 435.156 86.6966 435.527 87.553 435.647C88.4095 435.766 89.2822 435.628 90.06 435.25C90.2565 435.149 90.4294 435.008 90.5673 434.836C90.7052 434.664 90.805 434.464 90.86 434.25C90.8923 434.03 90.8547 433.805 90.7524 433.608C90.6501 433.411 90.4883 433.25 90.29 433.15C89.6911 432.896 89.0368 432.799 88.39 432.87C87.4893 432.915 86.6031 433.115 85.77 433.46C85.18 433.71 84.9 433.93 84.92 433.96C86.0384 433.555 87.2117 433.323 88.4 433.27C88.9652 433.235 89.5306 433.334 90.05 433.56C90.1599 433.613 90.2496 433.7 90.3056 433.808C90.3615 433.916 90.3806 434.04 90.36 434.16C90.3128 434.294 90.2389 434.418 90.1426 434.523C90.0464 434.627 89.9298 434.712 89.8 434.77C89.1192 435.075 88.365 435.178 87.6274 435.066C86.8899 434.954 86.2 434.633 85.64 434.14C85.1074 433.636 84.7596 432.968 84.6526 432.242C84.5456 431.517 84.6856 430.776 85.05 430.14C85.2088 429.888 85.4542 429.703 85.74 429.62C85.8585 429.596 85.9816 429.609 86.0925 429.657C86.2034 429.706 86.2968 429.787 86.36 429.89C86.5913 430.404 86.661 430.976 86.56 431.53C86.3915 432.702 86.0193 433.836 85.46 434.88Z" fill="#263238"/>
<path d="M114.47 434.67L116.07 455.79C116.07 455.79 95.0698 462.96 95.0698 466.9L136.16 466.8L135.02 433.8L114.47 434.67Z" fill="#FF725E"/>
<g opacity="0.6">
<path d="M128.69 453.5C129.089 453.606 129.435 453.855 129.662 454.2C129.889 454.545 129.98 454.962 129.92 455.37C129.831 455.773 129.59 456.127 129.248 456.358C128.905 456.588 128.487 456.679 128.08 456.61C127.654 456.499 127.284 456.231 127.046 455.861C126.807 455.491 126.716 455.044 126.79 454.61C126.923 454.209 127.205 453.875 127.576 453.674C127.948 453.473 128.382 453.422 128.79 453.53" fill="white"/>
</g>
<g opacity="0.6">
<path d="M136.11 466.8L135.99 463.48L96.3198 465C95.9027 465.218 95.5468 465.538 95.2848 465.929C95.0228 466.32 94.8629 466.771 94.8198 467.24L136.11 466.8Z" fill="white"/>
</g>
<path d="M115.39 455.6C115.39 455.8 116.39 455.86 117.39 456.46C118.39 457.06 118.96 457.89 119.14 457.8C119.32 457.71 118.97 456.57 117.74 455.86C116.51 455.15 115.34 455.42 115.39 455.6Z" fill="#263238"/>
<path d="M111.16 457.56C111.16 457.75 112 458.06 112.72 458.88C113.44 459.7 113.66 460.59 113.86 460.57C114.06 460.55 114.14 459.42 113.24 458.41C112.34 457.4 111.16 457.37 111.16 457.56Z" fill="#263238"/>
<path d="M108.92 462.81C109.1 462.81 109.34 461.81 108.78 460.75C108.22 459.69 107.27 459.28 107.19 459.45C107.11 459.62 107.72 460.18 108.19 461.07C108.66 461.96 108.72 462.79 108.92 462.81Z" fill="#263238"/>
<path d="M115.56 450.75C115.65 450.93 116.56 450.62 117.7 450.65C118.84 450.68 119.7 451 119.83 450.83C119.96 450.66 119.05 449.97 117.71 449.95C116.37 449.93 115.46 450.6 115.56 450.75Z" fill="#263238"/>
<g opacity="0.3">
<path d="M114.79 438.86L115.07 442.62L135.24 441.63L135.13 438.24L114.79 438.86Z" fill="black"/>
</g>
<path d="M115.32 446.49C116 446.64 116.708 446.605 117.37 446.39C118.107 446.23 118.822 445.982 119.5 445.65C119.9 445.453 120.285 445.226 120.65 444.97C120.879 444.838 121.085 444.669 121.26 444.47C121.377 444.316 121.441 444.128 121.441 443.935C121.441 443.742 121.377 443.554 121.26 443.4C121.155 443.264 121.02 443.155 120.865 443.08C120.711 443.006 120.541 442.968 120.37 442.97C120.108 442.985 119.85 443.032 119.6 443.11C119.167 443.237 118.745 443.401 118.34 443.6C117.658 443.94 117.033 444.386 116.49 444.92C115.58 445.84 115.28 446.6 115.35 446.64C115.42 446.68 115.88 446.05 116.82 445.29C117.372 444.847 117.976 444.474 118.62 444.18C118.995 444.013 119.383 443.876 119.78 443.77C120.21 443.64 120.58 443.62 120.7 443.77C120.82 443.92 120.75 443.87 120.7 444C120.569 444.145 120.417 444.269 120.25 444.37C119.908 444.611 119.554 444.835 119.19 445.04C118.55 445.381 117.881 445.662 117.19 445.88C116.552 446.035 115.926 446.239 115.32 446.49V446.49Z" fill="#263238"/>
<path d="M115.59 446.76C115.955 446.16 116.116 445.459 116.05 444.76C116.056 443.998 115.931 443.24 115.68 442.52C115.534 442.091 115.343 441.679 115.11 441.29C114.991 441.021 114.804 440.787 114.567 440.612C114.331 440.436 114.052 440.325 113.76 440.29C113.578 440.305 113.403 440.37 113.255 440.477C113.107 440.585 112.991 440.731 112.92 440.9C112.827 441.144 112.767 441.4 112.74 441.66C112.685 442.123 112.702 442.592 112.79 443.05C112.949 443.817 113.292 444.535 113.79 445.14C114.63 446.14 115.48 446.37 115.49 446.31C115.5 446.25 114.84 445.84 114.19 444.85C113.81 444.274 113.561 443.622 113.46 442.94C113.401 442.546 113.401 442.144 113.46 441.75C113.46 441.31 113.66 440.95 113.82 440.99C113.98 441.03 114.39 441.29 114.57 441.64C114.785 441.987 114.969 442.351 115.12 442.73C115.375 443.37 115.537 444.044 115.6 444.73C115.66 446 115.48 446.74 115.59 446.76Z" fill="#263238"/>
<path d="M101.17 254.05C101.17 254.05 91.5098 272.59 91.5098 287.61C91.5098 290.78 109.84 440.86 109.84 440.86L137.61 438.53L125.43 300.41L129.79 270.85L101.17 254.05Z" fill="#263238"/>
<path d="M163 270.48C163 270.48 156.51 324.68 153.46 345.57C150.28 367.42 144.01 371.57 144.01 371.57L93.8399 435.78L74.1799 418.07L118.18 353.82C118.18 353.82 130.24 268.74 129.82 270.82C129.4 272.9 163 270.48 163 270.48Z" fill="#263238"/>
<path d="M143 372.46C142.868 372.7 142.711 372.925 142.53 373.13L141.14 375L135.87 381.78C131.44 387.59 125.37 395.53 118.66 404.31C111.95 413.09 105.84 421.07 101.32 426.74C99.0598 429.59 97.2098 431.86 95.8998 433.42L94.3898 435.2C94.2195 435.412 94.0358 435.612 93.8398 435.8C93.9695 435.561 94.1237 435.337 94.2999 435.13L95.7299 433.28L101.01 426.5C105.44 420.69 111.51 412.75 118.22 403.97C124.93 395.19 131.04 387.21 135.56 381.54C137.82 378.69 139.67 376.42 140.97 374.86L142.49 373.08C142.643 372.86 142.814 372.653 143 372.46V372.46Z" fill="#455A64"/>
<path d="M114.68 162.44C114.68 162.44 104.97 168.27 102.05 173.44C99.13 178.61 83.61 216.44 84.25 222.63C84.89 228.82 99.46 232.63 99.46 232.63L114.68 212.89L105.61 206.74L114.68 195.41V162.44Z" fill="#FF725E"/>
<path d="M130.36 157.41L114.68 162.41C114.68 162.41 107.56 230.05 104 239.76C101.693 246.565 100.17 253.61 99.46 260.76C99.46 260.76 101.46 279.67 123.46 282.26C145.46 284.85 163 271.87 163 271.87C163 271.87 176.17 238.5 180.05 210C183.93 181.5 181.25 165.27 181.25 165.27L157.13 156.61L130.36 157.41Z" fill="#FF725E"/>
<path d="M176.82 167.3C176.14 168 166.46 174.42 163.22 185.42C159.98 196.42 156.43 207.75 156.43 207.75L143.8 209.37L150.92 238.5C150.92 238.5 166.14 236.88 174.55 222.96C182.96 209.04 188.14 191.89 188.14 191.89C188.14 191.89 187.07 156.63 176.82 167.3Z" fill="#FF725E"/>
<path d="M99.46 232.67C99.46 232.67 134.72 239.72 147.51 224.54L143.8 211.66C143.8 211.66 120.51 217.17 113.23 214.8L99.46 232.67Z" fill="#FFBE9D"/>
<path d="M148.13 208.82C148.13 208.82 153.5 196.82 154.21 196.67C154.92 196.52 165.21 192.88 165.21 192.88C165.526 193.721 165.526 194.649 165.21 195.49L169 196C169 196 168.44 198.29 167.18 198.61L168.52 199.79C167.849 200.685 166.984 201.416 165.99 201.93C165.611 202.12 165.194 202.219 164.77 202.219C164.346 202.219 163.928 202.12 163.55 201.93C163.55 201.93 164.02 202.79 161.89 204.13C159.76 205.47 156.12 207.45 156.12 207.45L148.13 208.82Z" fill="#FFBE9D"/>
<path d="M148.09 208.85C148.31 208.36 153.47 196.85 154.18 196.69C154.89 196.53 165.18 192.94 165.24 192.91C165.539 193.747 165.539 194.663 165.24 195.5L168.95 195.98C168.95 196.07 168.39 198.23 167.16 198.59L168.49 199.76C167.812 200.656 166.945 201.39 165.95 201.91C165.573 202.083 165.164 202.172 164.75 202.172C164.336 202.172 163.926 202.083 163.55 201.91C163.61 202.14 163.66 202.91 161.85 204.08C159.74 205.4 156.12 207.38 156.09 207.39L148.09 208.85ZM165.25 192.92C164.68 193.12 154.9 196.54 154.25 196.7C153.6 196.86 150.08 204.63 148.25 208.78L156.16 207.39C156.3 207.31 159.85 205.39 161.92 204.07C163.99 202.75 163.58 201.91 163.57 201.91V201.82L163.65 201.87C164.026 202.055 164.44 202.152 164.86 202.152C165.279 202.152 165.693 202.055 166.07 201.87C167.052 201.356 167.909 200.632 168.58 199.75L167.21 198.55H167.26C168.42 198.26 168.98 196.26 169.05 195.99L165.33 195.52C165.618 194.672 165.589 193.749 165.25 192.92V192.92Z" fill="#EB996E"/>
<path d="M164.94 195.53C162.751 196.584 160.485 197.467 158.16 198.17C157.22 198.51 156.28 198.77 155.54 199.17C154.883 199.488 154.342 200.001 153.99 200.64C153.38 201.76 153.15 202.56 153.05 202.53C153.088 201.801 153.29 201.09 153.64 200.45C153.991 199.706 154.574 199.096 155.3 198.71C156.169 198.316 157.065 197.982 157.98 197.71C160.24 196.804 162.567 196.075 164.94 195.53V195.53Z" fill="#EB996E"/>
<path d="M167.35 198.57C166.775 198.912 166.14 199.142 165.48 199.25C164.29 199.57 162.62 199.84 160.85 200.32C159.334 200.709 157.907 201.388 156.65 202.32C155.71 203.05 155.29 203.69 155.22 203.64C155.15 203.59 155.47 202.87 156.4 202.02C157.638 200.953 159.112 200.195 160.7 199.81C162.52 199.32 164.2 199.11 165.39 198.89C166.032 198.724 166.688 198.617 167.35 198.57V198.57Z" fill="#EB996E"/>
<path d="M157.86 204C158.474 203.173 159.353 202.58 160.35 202.32C161.287 201.879 162.349 201.783 163.35 202.05C163.35 202.22 162.04 202.31 160.55 202.85C159.06 203.39 158 204.16 157.86 204Z" fill="#EB996E"/>
<path d="M144.89 212.49L115.34 204.23L106.55 213.82C106.55 213.82 136.61 237.38 150.35 237" fill="#FFBE9D"/>
<path d="M150.35 237C149.114 237.085 147.872 236.997 146.66 236.74C143.367 236.045 140.17 234.954 137.14 233.49C129.38 230 119.36 223.74 109 216L106.42 214L106.18 213.82L106.39 213.59L115.2 204.01L115.31 203.89H115.47L136.69 209.89L142.77 211.67L144.39 212.16C144.577 212.215 144.761 212.281 144.94 212.36C144.743 212.349 144.548 212.312 144.36 212.25L142.73 211.84L136.6 210.2L115.32 204.36L115.59 204.28L106.8 213.88V213.47L109.37 215.47C119.75 223.19 129.71 229.47 137.37 233.05C140.369 234.531 143.525 235.668 146.78 236.44C147.288 236.562 147.802 236.655 148.32 236.72C148.701 236.783 149.085 236.823 149.47 236.84C149.766 236.875 150.06 236.928 150.35 237V237Z" fill="#EB996E"/>
<path d="M164.22 178.82C164.176 179.618 164.032 180.408 163.79 181.17C163.46 182.61 162.96 184.58 162.37 186.75C161.78 188.92 161.22 190.88 160.79 192.28C160.608 193.059 160.336 193.814 159.98 194.53C160.024 193.732 160.168 192.942 160.41 192.18C160.74 190.74 161.24 188.77 161.83 186.6C162.42 184.43 162.98 182.48 163.41 181.07C163.595 180.292 163.866 179.537 164.22 178.82V178.82Z" fill="#263238"/>
<path d="M162.85 218.35C162.75 218.35 162.47 216.89 161.73 214.61C161.313 213.281 160.667 212.036 159.82 210.93C158.817 209.582 157.348 208.655 155.7 208.33C154.013 208.25 152.324 208.446 150.7 208.91L146.54 209.73C146.016 209.8 145.502 209.935 145.01 210.13C144.834 210.201 144.675 210.308 144.542 210.444C144.409 210.58 144.307 210.742 144.24 210.92C144.169 211.077 144.132 211.248 144.132 211.42C144.132 211.592 144.169 211.763 144.24 211.92C144.24 211.92 143.8 211.65 143.99 210.92C144.053 210.706 144.159 210.506 144.302 210.334C144.444 210.162 144.621 210.021 144.82 209.92C145.326 209.682 145.86 209.51 146.41 209.41L150.56 208.47C152.254 207.961 154.023 207.748 155.79 207.84C157.579 208.189 159.17 209.204 160.24 210.68C161.102 211.845 161.74 213.161 162.12 214.56C162.387 215.483 162.597 216.421 162.75 217.37C162.828 217.691 162.862 218.02 162.85 218.35V218.35Z" fill="#263238"/>
<path d="M167.18 212C166.312 210.45 165.143 209.09 163.74 208C161.34 206.31 158.85 206 158.89 205.87C159.428 205.778 159.98 205.816 160.5 205.98C161.781 206.261 162.994 206.791 164.07 207.54C165.149 208.293 166.039 209.285 166.67 210.44C166.973 210.907 167.149 211.444 167.18 212V212Z" fill="#263238"/>
<path d="M188.14 191.89C188.11 192.103 188.053 192.311 187.97 192.51C187.82 192.97 187.62 193.51 187.39 194.26C186.84 195.84 186.1 198 185.19 200.65C184.28 203.3 183.14 206.57 181.57 210.02C180 213.47 178.13 217.17 175.89 220.94C173.786 224.494 171.106 227.674 167.96 230.35C165.401 232.546 162.525 234.343 159.43 235.68C157.344 236.576 155.148 237.191 152.9 237.51C152.29 237.6 151.676 237.656 151.06 237.68C150.847 237.706 150.632 237.706 150.42 237.68C150.42 237.62 151.3 237.58 152.86 237.3C155.069 236.892 157.221 236.22 159.27 235.3C166.023 232.174 171.655 227.054 175.41 220.63C177.62 216.92 179.41 213.16 181.1 209.79C182.79 206.42 183.82 203.18 184.81 200.51C185.8 197.84 186.6 195.66 187.18 194.17L187.87 192.46C187.941 192.262 188.031 192.071 188.14 191.89V191.89Z" fill="#263238"/>
<path d="M179 168.06C179.06 168.22 176.57 169.06 173.8 170.75C171.03 172.44 169.04 174.13 168.93 174.01C171.605 171.051 175.117 168.976 179 168.06Z" fill="#263238"/>
<path d="M113.52 192.46C113.621 190.605 113.913 188.765 114.39 186.97C114.68 185.134 115.152 183.332 115.8 181.59C115.705 183.445 115.417 185.285 114.94 187.08C114.649 188.917 114.173 190.719 113.52 192.46Z" fill="#263238"/>
<path d="M154.87 245.39C154.345 245.698 153.8 245.972 153.24 246.21C152.71 246.46 152.05 246.76 151.24 247.06C150.43 247.36 149.59 247.74 148.59 248.06C146.264 248.878 143.893 249.562 141.49 250.11C135.59 251.458 129.534 251.993 123.49 251.7C121.03 251.582 118.579 251.322 116.15 250.92C115.1 250.78 114.15 250.56 113.36 250.39C112.57 250.22 111.84 250.06 111.27 249.9C110.673 249.774 110.088 249.6 109.52 249.38C110.128 249.43 110.73 249.534 111.32 249.69C111.89 249.81 112.59 249.96 113.42 250.08C114.25 250.2 115.17 250.41 116.21 250.53C118.27 250.83 120.76 251.06 123.52 251.18C129.516 251.415 135.518 250.884 141.38 249.6C143.77 249.079 146.133 248.438 148.46 247.68C149.46 247.38 150.34 247.03 151.13 246.75C151.92 246.47 152.58 246.22 153.13 246C153.689 245.742 154.272 245.538 154.87 245.39V245.39Z" fill="#263238"/>
<path d="M129 261.92C126.797 261.639 124.636 261.099 122.56 260.31C120.424 259.697 118.37 258.831 116.44 257.73C116.5 257.58 119.27 258.63 122.73 259.73C124.855 260.354 126.948 261.085 129 261.92V261.92Z" fill="#263238"/>
<g opacity="0.3">
<path d="M141.25 235.28C139.17 234.4 137.16 233.21 134.93 232.87C132.21 232.46 129.93 233.27 127.21 233.69C119.11 234.96 113.06 234 105.42 233.69L105 236C108.36 238.62 112.6 239.46 116.86 239.38C120.73 239.31 124.53 238.05 128.4 238.16C131.444 238.408 134.447 239.012 137.35 239.96C142.28 241.27 147.45 242.18 152.48 241.31C157.51 240.44 162.41 237.5 164.48 232.86C161.106 235.143 157.22 236.559 153.168 236.981C149.116 237.403 145.022 236.819 141.25 235.28V235.28Z" fill="black"/>
</g>
<g opacity="0.3">
<path d="M117.33 258.81C118.973 261.536 121.23 263.841 123.921 265.54C126.612 267.24 129.662 268.288 132.83 268.6C134.202 268.768 135.594 268.653 136.92 268.26C137.58 268.061 138.193 267.731 138.722 267.289C139.251 266.848 139.686 266.304 140 265.69C138.534 264.731 136.903 264.053 135.19 263.69L117.52 258.83" fill="black"/>
</g>
<path d="M107.8 213.59L96.4099 214C95.2699 214 94.1999 213 93.7199 211.37L85.0599 182.1C84.2299 179.31 85.4299 176.2 87.3799 176.1L103.77 175.1C105.01 175.03 106.16 176.23 106.59 178.1L112.46 202.85C113.71 208 111.36 213.46 107.8 213.59Z" fill="#455A64"/>
<path d="M99.7799 201.33C98.4999 202.65 91.3599 196.85 89.2499 197.28C87.1399 197.71 85.8699 198.93 87.0399 199.83C88.2099 200.73 91.1599 203.67 91.6199 204.91C91.6199 204.91 91.8399 199.72 91.2799 200.56C90.7199 201.4 89.7799 202.74 91.1399 203.33C92.4999 203.92 90.3999 208.49 91.4099 209.06C93.0894 209.865 94.8537 210.478 96.6699 210.89C98.5326 211.463 100.365 212.131 102.16 212.89C104.912 214.009 107.979 214.08 110.78 213.09L112.21 212.59C113.296 212.21 114.236 211.499 114.898 210.558C115.56 209.616 115.91 208.491 115.9 207.34L115.85 202.61L117.55 198.79L114.55 192.37L109.55 190.71L111.47 196.66C109.47 197.66 106.19 198.27 104.47 197.34C102.75 196.41 96.1699 189.83 94.9199 190.46C93.6699 191.09 92.5599 192.6 93.6999 194.04C94.8399 195.48 101.04 199.96 99.7599 201.29" fill="#FFBE9D"/>
<path d="M74.3298 417.77C74.3778 417.665 74.4346 417.565 74.4998 417.47C74.6398 417.26 74.8198 416.97 75.0598 416.62L77.2298 413.37L85.2898 401.46L112 362.29L117.9 353.68V353.8C119.23 337.8 120.41 323.71 121.25 313.57C121.69 308.57 122.05 304.49 122.25 301.67C122.38 300.3 122.48 299.23 122.55 298.47C122.55 298.12 122.62 297.85 122.64 297.64C122.625 297.547 122.625 297.453 122.64 297.36C122.653 297.453 122.653 297.547 122.64 297.64C122.64 297.85 122.64 298.13 122.64 298.47C122.58 299.24 122.51 300.31 122.42 301.68C122.21 304.51 121.91 308.56 121.53 313.59C120.73 323.74 119.61 337.84 118.35 353.85V353.91V353.97L112.45 362.58C101.96 377.83 92.4498 391.64 85.5698 401.67L77.3698 413.48L75.1198 416.68L74.5298 417.5C74.4098 417.69 74.3398 417.78 74.3298 417.77Z" fill="#455A64"/>
<path d="M132.94 289.34C133.02 289.47 130.48 291.06 127.67 293.43C124.86 295.8 122.86 298.01 122.74 297.91C123.052 297.324 123.453 296.791 123.93 296.33C126.049 293.969 128.489 291.919 131.18 290.24C131.714 289.847 132.309 289.543 132.94 289.34V289.34Z" fill="#455A64"/>
<path d="M123 297.58C121.856 297.528 120.751 297.146 119.82 296.48C118.8 295.966 117.955 295.162 117.39 294.17C117.5 294.06 118.55 295.11 120.09 296.04C121.63 296.97 123 297.43 123 297.58Z" fill="#455A64"/>
<path d="M160.82 284.9C160.82 285.05 158.08 284.72 154.71 284.53C151.34 284.34 148.61 284.36 148.6 284.21C150.63 283.884 152.693 283.817 154.74 284.01C156.796 284.044 158.84 284.343 160.82 284.9V284.9Z" fill="#455A64"/>
<path d="M102.33 273C102.33 273 101.95 273.29 101.21 273.47C100.241 273.69 99.2381 273.714 98.26 273.54C97.2851 273.367 96.356 272.996 95.53 272.45C94.9 272.03 94.59 271.67 94.64 271.62C95.8176 272.24 97.0669 272.714 98.36 273.03C99.6798 273.179 101.013 273.169 102.33 273Z" fill="#455A64"/>
<path d="M185.66 189.2C185.416 189.393 185.147 189.551 184.86 189.67C184.103 190.047 183.317 190.361 182.51 190.61C181.316 190.994 180.092 191.275 178.85 191.45C177.321 191.639 175.778 191.689 174.24 191.6C172.705 191.478 171.184 191.21 169.7 190.8C168.493 190.456 167.319 190.008 166.19 189.46C165.428 189.098 164.695 188.677 164 188.2C163.73 188.047 163.484 187.855 163.27 187.63C163.33 187.55 164.42 188.28 166.35 189.13C167.478 189.619 168.641 190.023 169.83 190.34C171.29 190.709 172.779 190.956 174.28 191.08C175.784 191.171 177.292 191.134 178.79 190.97C180.009 190.826 181.216 190.589 182.4 190.26C184.43 189.69 185.62 189.11 185.66 189.2Z" fill="white"/>
<path d="M108 184.64C108.962 184.673 109.92 184.767 110.87 184.92C111.835 184.904 112.8 184.944 113.76 185.04C112.824 185.373 111.829 185.509 110.838 185.44C109.847 185.371 108.881 185.099 108 184.64V184.64Z" fill="white"/>
<path d="M162.2 184.36C162.2 184.51 151.57 185.55 138.43 186.7C125.29 187.85 114.61 188.7 114.6 188.51C114.59 188.32 125.23 187.32 138.38 186.18C151.53 185.04 162.19 184.22 162.2 184.36Z" fill="white"/>
<path d="M154.87 160.91C155.347 159.984 155.578 158.951 155.54 157.91L154.34 119.03C154.8 108.21 148.89 98.92 138.05 98.76H137.05C132.187 98.9728 127.582 101.009 124.152 104.463C120.722 107.917 118.719 112.536 118.54 117.4C118.19 126.78 117.92 137.15 118.2 142.16C118.78 152.54 129.2 153.7 129.2 153.7L129.54 157.75C129.54 157.75 128.73 164.75 136.87 167.15C143.12 168.99 149.98 165.05 152.87 163.15C153.716 162.585 154.404 161.814 154.87 160.91V160.91Z" fill="#FFBE9D"/>
<path d="M129.15 153.77C133.975 153.563 138.639 151.977 142.59 149.2C142.59 149.2 139.71 156.81 129.31 156.33L129.15 153.77Z" fill="#EB996E"/>
<path d="M124.33 125.87C124.34 126.256 124.503 126.623 124.781 126.891C125.06 127.158 125.433 127.305 125.82 127.3C126.009 127.308 126.198 127.278 126.376 127.211C126.553 127.145 126.715 127.043 126.852 126.912C126.989 126.782 127.099 126.625 127.174 126.451C127.249 126.277 127.289 126.089 127.29 125.9C127.279 125.513 127.117 125.145 126.839 124.876C126.56 124.606 126.187 124.457 125.8 124.46C125.61 124.455 125.422 124.487 125.245 124.555C125.068 124.624 124.907 124.726 124.77 124.857C124.633 124.989 124.524 125.146 124.448 125.32C124.373 125.493 124.332 125.68 124.33 125.87Z" fill="#263238"/>
<path d="M121 122.46C121.19 122.65 122.28 121.77 123.87 121.7C125.46 121.63 126.68 122.38 126.87 122.18C127.06 121.98 126.75 121.75 126.22 121.4C125.511 120.949 124.679 120.732 123.84 120.78C123.009 120.808 122.21 121.102 121.56 121.62C121.05 122 120.89 122.38 121 122.46Z" fill="#263238"/>
<path d="M139.78 125.87C139.79 126.256 139.952 126.623 140.231 126.891C140.51 127.158 140.883 127.305 141.27 127.3C141.459 127.308 141.648 127.278 141.825 127.211C142.003 127.145 142.165 127.043 142.302 126.912C142.439 126.782 142.549 126.625 142.624 126.451C142.699 126.277 142.739 126.089 142.74 125.9C142.729 125.514 142.567 125.147 142.288 124.879C142.009 124.612 141.636 124.465 141.25 124.47C141.06 124.462 140.871 124.492 140.694 124.559C140.517 124.625 140.355 124.727 140.217 124.858C140.08 124.988 139.971 125.145 139.895 125.319C139.82 125.493 139.781 125.681 139.78 125.87V125.87Z" fill="#263238"/>
<path d="M136.69 122.08C136.88 122.26 137.97 121.38 139.57 121.32C141.17 121.26 142.37 122 142.57 121.8C142.77 121.6 142.45 121.36 141.92 121.02C141.212 120.565 140.38 120.345 139.54 120.39C138.709 120.424 137.91 120.722 137.26 121.24C136.75 121.64 136.6 122 136.69 122.08Z" fill="#263238"/>
<path d="M131.41 134.16C130.558 133.932 129.681 133.815 128.8 133.81C128.39 133.81 128 133.72 127.92 133.44C127.864 133.024 127.941 132.6 128.14 132.23L129.21 129.07C130.69 124.58 131.75 120.89 131.56 120.83C131.37 120.77 130.03 124.37 128.56 128.83C128.21 129.94 127.87 130.99 127.56 132C127.33 132.505 127.281 133.073 127.42 133.61C127.484 133.753 127.58 133.879 127.702 133.978C127.824 134.077 127.967 134.147 128.12 134.18C128.346 134.232 128.578 134.252 128.81 134.24C129.677 134.324 130.55 134.297 131.41 134.16V134.16Z" fill="#263238"/>
<path d="M136 115.84C136.17 116.27 137.76 115.99 139.64 116.14C141.52 116.29 143.06 116.73 143.29 116.33C143.39 116.13 143.11 115.74 142.48 115.33C141.649 114.841 140.713 114.56 139.75 114.51C138.788 114.434 137.821 114.589 136.93 114.96C136.26 115.28 135.93 115.64 136 115.84Z" fill="#263238"/>
<path d="M121.38 117.82C121.67 118.17 122.75 117.74 124.08 117.67C125.41 117.6 126.53 117.8 126.77 117.41C126.87 117.22 126.68 116.87 126.18 116.55C125.51 116.157 124.734 115.982 123.96 116.05C123.183 116.098 122.439 116.384 121.83 116.87C121.38 117.26 121.24 117.64 121.38 117.82Z" fill="#263238"/>
<path d="M153.11 129.26C153.105 128.878 153.179 128.499 153.326 128.145C153.472 127.792 153.689 127.473 153.963 127.206C154.237 126.94 154.563 126.732 154.92 126.595C155.277 126.458 155.658 126.395 156.04 126.41C157.98 126.51 160.18 127.51 160.23 131.52C160.31 138.63 153.16 137.25 153.14 137.04C153.12 136.83 153.12 132.23 153.11 129.26Z" fill="#FFBE9D"/>
<path d="M154.66 134.35C154.66 134.35 154.78 134.44 154.99 134.53C155.289 134.648 155.621 134.648 155.92 134.53C156.376 134.232 156.744 133.819 156.989 133.333C157.233 132.846 157.344 132.303 157.31 131.76C157.317 131.15 157.191 130.546 156.94 129.99C156.873 129.768 156.752 129.566 156.588 129.402C156.424 129.238 156.222 129.117 156 129.05C155.856 129.013 155.705 129.028 155.571 129.092C155.438 129.156 155.331 129.265 155.27 129.4C155.18 129.6 155.22 129.74 155.19 129.75C155.16 129.76 155.03 129.64 155.09 129.34C155.125 129.163 155.221 129.004 155.36 128.89C155.556 128.746 155.798 128.679 156.04 128.7C156.333 128.756 156.606 128.885 156.836 129.076C157.065 129.266 157.242 129.512 157.35 129.79C157.662 130.41 157.816 131.096 157.8 131.79C157.8 133.22 157.06 134.57 156.03 134.88C155.84 134.94 155.64 134.955 155.444 134.923C155.247 134.892 155.061 134.816 154.9 134.7C154.67 134.52 154.63 134.36 154.66 134.35Z" fill="#EB996E"/>
<path d="M118.55 117.18C118.45 118.62 116.61 113.76 117.35 112.52C116.834 112.665 116.292 112.698 115.762 112.616C115.232 112.534 114.726 112.339 114.277 112.045C113.829 111.751 113.449 111.364 113.163 110.91C112.877 110.456 112.691 109.946 112.619 109.415C112.547 108.883 112.59 108.343 112.744 107.829C112.899 107.315 113.162 106.841 113.515 106.438C113.869 106.034 114.305 105.712 114.794 105.491C115.283 105.271 115.814 105.158 116.35 105.16C115.987 104.509 115.851 103.756 115.964 103.019C116.076 102.282 116.43 101.604 116.97 101.09C117.597 100.658 118.316 100.378 119.07 100.27C119.048 99.389 119.255 98.5173 119.67 97.74C120.108 96.8868 120.736 96.1452 121.505 95.5718C122.274 94.9984 123.164 94.6086 124.107 94.432C125.05 94.2554 126.02 94.2967 126.945 94.5529C127.869 94.8091 128.723 95.2733 129.44 95.91C130.041 95.0929 130.833 94.4346 131.746 93.9918C132.658 93.549 133.665 93.3351 134.679 93.3686C135.693 93.402 136.684 93.6819 137.566 94.1839C138.447 94.6859 139.194 95.395 139.74 96.25C140.487 95.7921 141.327 95.5056 142.198 95.411C143.069 95.3165 143.951 95.4162 144.779 95.7031C145.607 95.99 146.361 96.4569 146.988 97.0702C147.614 97.6835 148.096 98.4279 148.4 99.25C149.288 98.7731 150.306 98.5981 151.302 98.7515C152.298 98.9048 153.217 99.3782 153.92 100.1C154.402 100.781 154.93 101.43 155.5 102.04C156.317 102.548 157.181 102.976 158.08 103.32C158.708 103.699 159.246 104.211 159.654 104.821C160.062 105.431 160.331 106.123 160.442 106.848C160.553 107.573 160.502 108.314 160.295 109.018C160.087 109.722 159.727 110.371 159.24 110.92C160.266 111.668 161.162 112.58 161.89 113.62C162.252 114.142 162.484 114.743 162.567 115.372C162.651 116.002 162.583 116.642 162.37 117.24C161.77 118.64 160.18 119.41 159.59 120.82C159.32 121.46 159.29 122.19 159.03 122.82C158.795 123.345 158.452 123.814 158.023 124.197C157.594 124.579 157.088 124.867 156.54 125.04C155.87 127.9 153.87 128.68 153.81 129.52C153.23 138.36 149.59 133.23 147.76 114.59C147.33 110.21 148.93 107.98 145.48 105.29C145.026 105.847 144.602 106.428 144.21 107.03C143.68 107.658 143.024 108.168 142.285 108.527C141.546 108.887 140.74 109.087 139.919 109.117C139.097 109.146 138.279 109.003 137.516 108.697C136.754 108.391 136.063 107.929 135.49 107.34C135.093 108.027 134.539 108.61 133.873 109.041C133.206 109.472 132.447 109.738 131.658 109.817C130.868 109.896 130.071 109.786 129.333 109.496C128.594 109.206 127.935 108.745 127.41 108.15C126.13 109.29 123.16 111.22 120.91 109.15C119.536 111.618 118.73 114.361 118.55 117.18V117.18Z" fill="#263238"/>
<path d="M131 137.74C131.227 138.402 131.547 139.028 131.95 139.6C132.156 139.882 132.419 140.116 132.723 140.289C133.026 140.461 133.362 140.567 133.71 140.6C134.082 140.607 134.451 140.519 134.78 140.344C135.108 140.169 135.387 139.913 135.59 139.6C135.989 138.961 136.175 138.211 136.12 137.46C136.12 136.79 135.78 135.98 135.12 135.9C134.839 135.895 134.562 135.957 134.31 136.08L130.78 137.51" fill="#EB996E"/>
<path d="M132.38 140.64C133.016 140.672 133.652 140.591 134.26 140.4C134.875 140.158 135.38 139.699 135.68 139.11C135.841 138.748 135.925 138.356 135.925 137.96C135.925 137.564 135.841 137.172 135.68 136.81C135.598 136.621 135.494 136.443 135.37 136.28C135.24 136.14 135.26 136.14 135.11 136.17C134.915 136.23 134.724 136.303 134.54 136.39L133.97 136.62C133.21 136.93 132.53 137.19 131.97 137.41C131.367 137.701 130.723 137.896 130.06 137.99C130.583 137.566 131.17 137.228 131.8 136.99C132.35 136.72 133.02 136.41 133.8 136.08L134.37 135.83C134.577 135.726 134.791 135.635 135.01 135.56C135.178 135.501 135.362 135.501 135.53 135.56C135.685 135.622 135.82 135.726 135.92 135.86C136.082 136.065 136.216 136.29 136.32 136.53C136.509 136.979 136.597 137.465 136.578 137.952C136.559 138.44 136.434 138.917 136.21 139.35C136.021 139.696 135.765 140.001 135.458 140.248C135.151 140.495 134.798 140.679 134.42 140.79C133.929 140.952 133.402 140.973 132.9 140.85C132.53 140.79 132.36 140.67 132.38 140.64Z" fill="#263238"/>
<path d="M102.79 134.23L95.8999 122.08C100.172 115.155 101.699 106.882 100.18 98.8887C98.6621 90.895 94.2086 83.7584 87.6953 78.8817C81.1819 74.0051 73.08 71.7413 64.9822 72.5354C56.8844 73.3295 49.3766 77.124 43.9346 83.1729C38.4927 89.2219 35.5103 97.0877 35.5737 105.224C35.6372 113.36 38.742 121.179 44.2776 127.142C49.8133 133.105 57.3795 136.782 65.4886 137.45C73.5978 138.118 81.6635 135.728 88.0999 130.75V130.75L102.79 134.23Z" fill="#FAFAFA"/>
<path d="M102.79 134.23L88.0599 130.87H87.9099L88.0099 130.75L88.1499 130.89C86.0867 132.484 83.8408 133.827 81.4599 134.89C78.6271 136.162 75.6265 137.02 72.5499 137.44C70.8444 137.679 69.1209 137.766 67.3999 137.7C66.5199 137.7 65.6099 137.63 64.7099 137.55L61.9999 137.11C53.8149 135.499 46.5499 130.833 41.6799 124.06C38.9729 120.314 37.1008 116.031 36.1899 111.5C35.2321 106.7 35.3517 101.748 36.5399 97C37.7739 92.049 40.174 87.4648 43.5399 83.63L44.8699 82.17C45.2999 81.68 45.8199 81.27 46.2999 80.82C46.7799 80.37 47.2399 79.91 47.7699 79.53L49.3299 78.37C49.8432 77.9745 50.3846 77.6168 50.9499 77.3L52.5999 76.3L54.3199 75.46C54.8654 75.1815 55.4263 74.9345 55.9999 74.72C60.6282 72.8947 65.6075 72.1326 70.5699 72.49C75.2704 72.8197 79.8397 74.1857 83.9499 76.49C91.3386 80.6112 96.8623 87.4129 99.3799 95.49C100.391 98.9001 100.88 102.444 100.83 106C100.747 109.104 100.211 112.18 99.2399 115.13C98.4286 117.582 97.3346 119.931 95.9799 122.13V122L102.79 134.2L95.7899 122.1C97.1304 119.902 98.2046 117.552 98.9899 115.1C99.9365 112.17 100.455 109.118 100.53 106.04C100.587 102.494 100.105 98.9607 99.0999 95.56C96.599 87.5664 91.1262 80.8372 83.8099 76.76C79.7371 74.5121 75.2212 73.1843 70.5799 72.87C65.6743 72.5241 60.7536 73.2827 56.1799 75.09C55.5915 75.3117 55.0172 75.5688 54.4599 75.86L52.7599 76.69L51.1299 77.69C50.575 77.9875 50.0405 78.3216 49.5299 78.69L47.9999 79.89C47.4799 80.26 46.9999 80.74 46.5499 81.16C46.0999 81.58 45.5499 82 45.1299 82.49L43.8199 83.93C40.5074 87.7227 38.1487 92.2516 36.9399 97.14C35.7592 101.816 35.626 106.696 36.5499 111.43C37.46 115.911 39.3183 120.146 41.9999 123.85C46.7931 130.536 53.9377 135.162 61.9999 136.8L64.7199 137.21C65.6199 137.29 66.5099 137.32 67.3899 137.37C69.0936 137.437 70.8 137.357 72.4899 137.13C75.5469 136.727 78.5305 135.889 81.3499 134.64C83.7183 133.571 85.9535 132.229 88.0099 130.64L88.6099 130.18L88.1499 130.78L88.0899 130.62L102.79 134.23Z" fill="#263238"/>
<path d="M59.05 105.05C59.05 105.703 58.8564 106.341 58.4938 106.883C58.1312 107.426 57.6158 107.849 57.0128 108.099C56.4098 108.349 55.7463 108.414 55.1062 108.287C54.466 108.159 53.878 107.845 53.4165 107.383C52.955 106.922 52.6407 106.334 52.5134 105.694C52.386 105.054 52.4514 104.39 52.7012 103.787C52.9509 103.184 53.3739 102.669 53.9166 102.306C54.4593 101.944 55.0973 101.75 55.75 101.75C56.6252 101.75 57.4645 102.098 58.0834 102.717C58.7023 103.335 59.05 104.175 59.05 105.05V105.05Z" fill="#263238"/>
<path d="M72.2599 105.05C72.2599 105.703 72.0664 106.341 71.7038 106.883C71.3412 107.426 70.8258 107.849 70.2228 108.099C69.6198 108.349 68.9562 108.414 68.3161 108.287C67.676 108.159 67.088 107.845 66.6265 107.383C66.1649 106.922 65.8507 106.334 65.7233 105.694C65.596 105.054 65.6613 104.39 65.9111 103.787C66.1609 103.184 66.5838 102.669 67.1265 102.306C67.6692 101.944 68.3072 101.75 68.9599 101.75C69.8351 101.75 70.6745 102.098 71.2934 102.717C71.9122 103.335 72.2599 104.175 72.2599 105.05V105.05Z" fill="#263238"/>
<path d="M85.4399 103.4C85.7656 103.965 85.9165 104.615 85.8733 105.266C85.8301 105.917 85.5949 106.541 85.1974 107.058C84.7998 107.575 84.2578 107.963 83.6398 108.173C83.0218 108.382 82.3556 108.404 81.7254 108.235C81.0952 108.066 80.5292 107.714 80.0991 107.223C79.6689 106.732 79.3939 106.125 79.3087 105.478C79.2236 104.831 79.3322 104.173 79.6207 103.588C79.9092 103.003 80.3648 102.516 80.9299 102.19C81.3054 101.973 81.72 101.832 82.1499 101.776C82.5799 101.719 83.0168 101.748 83.4356 101.86C83.8545 101.973 84.2471 102.166 84.591 102.431C84.9349 102.695 85.2233 103.024 85.4399 103.4V103.4Z" fill="#263238"/>
</svg>
